# xmcd CD database file
#
# Track frame offsets:
#	150
#	40891
#	65061
#	87777
#	117680
#	155315
#	186087
#	207532
#
# Disc length: 3192 seconds
#
# Revision: 0
# Processed by: cddbd v1.5.2PL0 Copyright (c) Steve Scherf et al.
# Submitted via: CDex 1.79
#
DISCID=710c7608
DTITLE=The Tab Two - Live (Zeltspektakel Waiblingen) - 1997 CD2
DYEAR=1997
DGENRE=Jazz
TTITLE0=Get Rid
TTITLE1=Belle Affair
TTITLE2=Out-o-fear
TTITLE3=Unknown Title 1
TTITLE4=Unknown Title 2
TTITLE5=Wanna lay by your side
TTITLE6=Labertrack
TTITLE7=Not a lot
EXTD=YEAR: 1997
EXTT0=
EXTT1=
EXTT2=
EXTT3=
EXTT4=
EXTT5=
EXTT6=
EXTT7=
PLAYORDER=
